<svg xmlns="http://www.w3.org/2000/svg" xmlns:xlink="http://www.w3.org/1999/xlink" width="500" zoomAndPan="magnify" viewBox="0 0 375 374.999991" height="500" preserveAspectRatio="xMidYMid meet" version="1.0"><defs><clipPath id="f7dd6a1395"><path d="M 137 145 L 373.5 145 L 373.5 363 L 137 363 Z M 137 145 " clip-rule="nonzero"/></clipPath><clipPath id="7bbc7a7415"><path d="M 72 8.050781 L 301 8.050781 L 301 220 L 72 220 Z M 72 8.050781 " clip-rule="nonzero"/></clipPath><clipPath id="bc1088480b"><path d="M 0.0117188 133 L 179 133 L 179 363 L 0.0117188 363 Z M 0.0117188 133 " clip-rule="nonzero"/></clipPath></defs><g clip-path="url(#f7dd6a1395)"><path fill="#70caf2" d="M 358.183594 190.992188 C 346.375 170.519531 329.191406 155.089844 309.441406 145.457031 C 306.914062 158.957031 302.136719 172.265625 294.890625 184.824219 L 283.464844 204.675781 C 291.074219 208.910156 297.703125 215.140625 302.375 223.242188 C 316.105469 247.039062 307.953125 277.484375 284.171875 291.226562 C 260.390625 304.96875 229.976562 296.816406 216.242188 273.011719 L 193.183594 233.09375 L 155.96875 233.09375 L 137.359375 265.347656 L 160.4375 305.257812 C 191.96875 359.914062 261.789062 378.640625 316.394531 347.082031 C 370.996094 315.53125 389.707031 245.648438 358.183594 190.992188 " fill-opacity="1" fill-rule="nonzero"/></g><g clip-path="url(#7bbc7a7415)"><path fill="#b4e3f9" d="M 243.816406 23.378906 C 189.210938 -8.171875 119.390625 10.550781 87.863281 65.203125 C 76.050781 85.675781 71.296875 108.285156 72.832031 130.21875 C 85.777344 125.660156 99.683594 123.148438 114.175781 123.148438 L 137.058594 123.125 C 136.914062 114.414062 138.996094 105.550781 143.664062 97.457031 C 157.402344 73.652344 187.8125 65.492188 211.597656 79.238281 C 235.382812 92.984375 243.527344 123.421875 229.796875 147.226562 L 206.796875 187.171875 L 225.398438 219.433594 L 262.613281 219.425781 L 285.605469 179.46875 C 317.132812 124.820312 298.425781 54.929688 243.816406 23.378906 " fill-opacity="1" fill-rule="nonzero"/></g><g clip-path="url(#bc1088480b)"><path fill="#3f79ad" d="M 151.164062 310.621094 L 139.699219 290.792969 C 132.230469 295.277344 123.527344 297.902344 114.1875 297.902344 C 86.71875 297.902344 64.457031 275.617188 64.457031 248.125 C 64.457031 220.640625 86.71875 198.359375 114.1875 198.359375 L 160.25 198.324219 L 178.863281 166.070312 L 160.25 133.816406 L 114.179688 133.859375 C 51.125 133.859375 0.015625 185.023438 0.015625 248.125 C 0.015625 311.238281 51.125 362.398438 114.179688 362.398438 C 137.792969 362.398438 159.726562 355.21875 177.929688 342.933594 C 167.511719 333.992188 158.40625 323.171875 151.164062 310.621094 " fill-opacity="1" fill-rule="nonzero"/></g></svg>